<mxfile host="app.diagrams.net" agent="Mozilla/5.0 (Windows NT 10.0; Win64; x64) AppleWebKit/537.36 (KHTML, like Gecko) Chrome/136.0.0.0 Safari/537.36" version="27.0.3">
  <diagram name="第 1 页" id="6Rbo_3EuGUP2KhcuX6CH">
    <mxGraphModel dx="961" dy="513" grid="0" gridSize="10" guides="1" tooltips="1" connect="1" arrows="1" fold="1" page="1" pageScale="1" pageWidth="827" pageHeight="1169" math="0" shadow="0">
      <root>
        <mxCell id="0" />
        <mxCell id="1" parent="0" />
        <mxCell id="OF3ygon8lDjMoUesUW8g-11" value="" style="rounded=0;whiteSpace=wrap;html=1;dashed=1;dashPattern=1 2;" parent="1" vertex="1">
          <mxGeometry x="125" y="396" width="260" height="210" as="geometry" />
        </mxCell>
        <mxCell id="OF3ygon8lDjMoUesUW8g-4" value="" style="edgeStyle=orthogonalEdgeStyle;rounded=0;orthogonalLoop=1;jettySize=auto;html=1;flowAnimation=1;" parent="1" edge="1">
          <mxGeometry relative="1" as="geometry">
            <mxPoint x="240" y="350" as="sourcePoint" />
            <mxPoint x="240" y="410" as="targetPoint" />
          </mxGeometry>
        </mxCell>
        <mxCell id="OF3ygon8lDjMoUesUW8g-1" value="前端程序" style="rounded=1;whiteSpace=wrap;html=1;" parent="1" vertex="1">
          <mxGeometry x="190" y="290" width="120" height="60" as="geometry" />
        </mxCell>
        <mxCell id="OF3ygon8lDjMoUesUW8g-5" value="" style="edgeStyle=orthogonalEdgeStyle;rounded=0;orthogonalLoop=1;jettySize=auto;html=1;flowAnimation=1;" parent="1" edge="1">
          <mxGeometry relative="1" as="geometry">
            <mxPoint x="260" y="410" as="sourcePoint" />
            <mxPoint x="260" y="350" as="targetPoint" />
          </mxGeometry>
        </mxCell>
        <mxCell id="OF3ygon8lDjMoUesUW8g-2" value="后端程序" style="rounded=1;whiteSpace=wrap;html=1;" parent="1" vertex="1">
          <mxGeometry x="190" y="410" width="120" height="60" as="geometry" />
        </mxCell>
        <mxCell id="OF3ygon8lDjMoUesUW8g-6" value="数据库" style="shape=cylinder3;whiteSpace=wrap;html=1;boundedLbl=1;backgroundOutline=1;size=15;" parent="1" vertex="1">
          <mxGeometry x="157" y="508" width="58" height="70" as="geometry" />
        </mxCell>
        <mxCell id="OF3ygon8lDjMoUesUW8g-7" value="其他" style="shape=cylinder3;whiteSpace=wrap;html=1;boundedLbl=1;backgroundOutline=1;size=15;" parent="1" vertex="1">
          <mxGeometry x="277" y="508" width="55" height="69" as="geometry" />
        </mxCell>
        <mxCell id="OF3ygon8lDjMoUesUW8g-9" value="" style="endArrow=classic;startArrow=classic;html=1;rounded=0;flowAnimation=1;" parent="1" edge="1">
          <mxGeometry width="50" height="50" relative="1" as="geometry">
            <mxPoint x="190" y="508" as="sourcePoint" />
            <mxPoint x="228" y="470" as="targetPoint" />
          </mxGeometry>
        </mxCell>
        <mxCell id="OF3ygon8lDjMoUesUW8g-10" value="" style="endArrow=classic;startArrow=classic;html=1;rounded=0;flowAnimation=1;exitX=0.383;exitY=0.011;exitDx=0;exitDy=0;exitPerimeter=0;entryX=0.623;entryY=0.987;entryDx=0;entryDy=0;entryPerimeter=0;" parent="1" source="OF3ygon8lDjMoUesUW8g-7" target="OF3ygon8lDjMoUesUW8g-2" edge="1">
          <mxGeometry width="50" height="50" relative="1" as="geometry">
            <mxPoint x="200" y="518" as="sourcePoint" />
            <mxPoint x="238" y="480" as="targetPoint" />
          </mxGeometry>
        </mxCell>
        <mxCell id="OF3ygon8lDjMoUesUW8g-12" value="服务器" style="text;html=1;align=center;verticalAlign=middle;resizable=0;points=[];autosize=1;strokeColor=none;fillColor=none;" parent="1" vertex="1">
          <mxGeometry x="324" y="405" width="54" height="26" as="geometry" />
        </mxCell>
      </root>
    </mxGraphModel>
  </diagram>
</mxfile>
